Coordinates
version=1
nRows=21
nColumns=22
inDegrees=yes

Units are S.I. units (second, meters, Newtons, ...)
If the header above contains a line with 'inDegrees', this indicates whether rotational values are in degrees (yes) or radians (no).

endheader
time	pelvis_tilt	pelvis_list	pelvis_rotation	pelvis_tx	pelvis_ty	pelvis_tz	hip_flexion_r	hip_adduction_r	hip_rotation_r	knee_angle_r	ankle_angle_r	subtalar_angle_r	hip_flexion_l	hip_adduction_l	hip_rotation_l	knee_angle_l	ankle_angle_l	subtalar_angle_l	lumbar_extension	lumbar_bending	lumbar_rotation
      0.01000000	     -1.58472346	     -4.64055006	      2.16344145	      0.15290461	      1.01770981	      1.33611598	     -1.69069238	      1.36518221	     -3.06282667	     -9.39180207	     10.12652441	      3.07995704	     -3.97405092	     -6.94635588	    -12.76933379	     -5.57963370	     10.93421897	     -1.49304901	     -1.27987054	      1.30641903	     -1.68724640
      0.02000000	     -1.58100509	     -4.63882356	      2.15444308	      0.15302393	      1.01770302	      1.33608362	     -1.69619572	      1.36053850	     -3.03957124	     -9.40278949	     10.11151492	      3.08751596	     -3.98638745	     -6.94202305	    -12.77222397	     -5.58271436	     10.94714912	     -1.49405802	     -1.28909670	      1.31336147	     -1.70959582
      0.03000000	     -1.57554573	     -4.63907189	      2.13682025	      0.15316468	      1.01769456	      1.33608381	     -1.70698178	      1.35997025	     -2.98392310	     -9.41026038	     10.11492014	      3.09560412	     -4.00578171	     -6.94061544	    -12.78118370	     -5.58252504	     10.95975093	     -1.49398553	     -1.30026202	      1.32103140	     -1.72532351
      0.04000000	     -1.56710185	     -4.64373939	      2.09729774	      0.15332032	      1.01768813	      1.33614906	     -1.71945085	      1.36605264	     -2.91362408	     -9.41867618	     10.13165089	      3.10615202	     -4.03696586	     -6.94464395	    -12.81510463	     -5.57656207	     10.97125298	     -1.49159186	     -1.31567986	      1.33004791	     -1.71158779
      0.05000000	     -1.57252399	     -4.64355187	      2.07646295	      0.15346580	      1.01766256	      1.33619876	     -1.72029434	      1.36627871	     -2.91461100	     -9.41787303	     10.13261797	      3.10664029	     -4.04325054	     -6.94510177	    -12.81524781	     -5.58220480	     10.97125291	     -1.49121745	     -1.31777075	      1.33216840	     -1.71552582
      0.06000000	     -1.56998762	     -4.65632034	      2.00930732	      0.15359815	      1.01764210	      1.33635828	     -1.71431322	      1.38197707	     -2.86032762	     -9.44041892	     10.15759477	      3.11052212	     -4.06788272	     -6.96056900	    -12.89700993	     -5.58367690	     10.98774976	     -1.48415442	     -1.33384977	      1.34935433	     -1.67026813
      0.07000000	     -1.57765637	     -4.65586320	      1.98358065	      0.15371704	      1.01761156	      1.33648889	     -1.71187216	      1.38560342	     -2.86567307	     -9.43708796	     10.15845557	      3.11048136	     -4.07155076	     -6.96502985	    -12.89616266	     -5.58731853	     10.98836841	     -1.48384070	     -1.33987055	      1.34560595	     -1.67796122
      0.08000000	     -1.58550172	     -4.67020031	      1.93843437	      0.15383751	      1.01757026	      1.33665853	     -1.69043028	      1.40468009	     -2.88295070	     -9.46619101	     10.17686715	      3.10213943	     -4.07808963	     -6.98533560	    -12.95522996	     -5.59075453	     11.00638855	     -1.48010331	     -1.34531182	      1.36423396	     -1.66794157
      0.09000000	     -1.59325110	     -4.66901722	      1.91473948	      0.15395554	      1.01753467	      1.33681926	     -1.68809151	      1.41016944	     -2.88822450	     -9.46292666	     10.17908380	      3.10127052	     -4.07955006	     -6.99113695	    -12.95483400	     -5.59659842	     11.00756956	     -1.47971947	     -1.35198781	      1.35932205	     -1.67363043
      0.10000000	     -1.59822472	     -4.68195746	      1.88751236	      0.15404980	      1.01749068	      1.33698849	     -1.66709707	      1.43062860	     -2.90101407	     -9.49868543	     10.21390089	      3.08061617	     -4.06818042	     -7.01607441	    -13.01096419	     -5.62939320	     11.03494416	     -1.47465816	     -1.36653672	      1.37576739	     -1.67533066
      0.11000000	     -1.60497386	     -4.67888461	      1.87630924	      0.15418844	      1.01745551	      1.33712763	     -1.66652973	      1.43507019	     -2.90211327	     -9.49899454	     10.21563640	      3.07925086	     -4.06937826	     -7.01995594	    -13.01043876	     -5.63334304	     11.03679801	     -1.47416287	     -1.37114404	      1.37225430	     -1.68130172
      0.12000000	     -1.60477805	     -4.67790288	      1.88178080	      0.15429027	      1.01741617	      1.33723440	     -1.65997326	      1.44239938	     -2.89049949	     -9.52688721	     10.25979137	      3.04528990	     -4.05541319	     -7.03077561	    -13.02435653	     -5.67110868	     11.07239148	     -1.46258813	     -1.39152623	      1.37769710	     -1.71637361
      0.13000000	     -1.60449920	     -4.67096104	      1.89342751	      0.15442090	      1.01739025	      1.33732217	     -1.65795000	      1.44339509	     -2.87012787	     -9.55012237	     10.26663194	      3.03577585	     -4.05756604	     -7.03106503	    -13.02156917	     -5.67643907	     11.07838559	     -1.45798295	     -1.40765490	      1.37727237	     -1.75340010
      0.14000000	     -1.59865588	     -4.66138872	      1.91920337	      0.15454753	      1.01736941	      1.33738632	     -1.66406153	      1.44232369	     -2.84165050	     -9.57268057	     10.28624782	      3.02294268	     -4.05996466	     -7.03011713	    -13.00906305	     -5.68722816	     11.08537191	     -1.45226368	     -1.43252075	      1.37501602	     -1.79830626
      0.15000000	     -1.57317243	     -4.64200075	      1.96703004	      0.15469728	      1.01736709	      1.33739456	     -1.70452498	      1.43062412	     -2.83468503	     -9.57657532	     10.33731330	      2.98693544	     -4.08307780	     -7.01835270	    -12.95806646	     -5.69627332	     11.10107048	     -1.43148827	     -1.47704442	      1.36932028	     -1.85483578
      0.16000000	     -1.56390569	     -4.62950620	      1.99743891	      0.15483733	      1.01735445	      1.33743233	     -1.71391869	      1.42514446	     -2.80325772	     -9.60298512	     10.34393074	      2.97837127	     -4.09724762	     -7.01194566	    -12.94349983	     -5.69202509	     11.10078213	     -1.42367362	     -1.50360309	      1.37356850	     -1.90515604
      0.17000000	     -1.53407999	     -4.61039961	      2.05000769	      0.15496944	      1.01736592	      1.33745997	     -1.76285765	      1.41590039	     -2.79143272	     -9.59784221	     10.38809096	      2.95496499	     -4.13364576	     -7.00148849	    -12.88245011	     -5.68000299	     11.10055067	     -1.39756733	     -1.56029879	      1.36521017	     -1.95695481
      0.18000000	     -1.50962804	     -4.59673368	      2.08905075	      0.15510121	      1.01737491	      1.33751678	     -1.79470954	      1.41108499	     -2.78399439	     -9.61242028	     10.40656230	      2.94218178	     -4.17022271	     -6.99695195	    -12.84759867	     -5.66229851	     11.09471265	     -1.36831852	     -1.60747749	      1.36572314	     -2.00169798
      0.19000000	     -1.51218406	     -4.58939821	      2.10890894	      0.15519391	      1.01734957	      1.33763109	     -1.79119966	      1.41301534	     -2.77011019	     -9.63051250	     10.41355754	      2.93987398	     -4.17611332	     -7.00051381	    -12.84319523	     -5.64891178	     11.09586480	     -1.36068046	     -1.62974593	      1.37057774	     -2.02509238
      0.20000000	     -1.51220854	     -4.58612579	      2.12707675	      0.15525174	      1.01732621	      1.33776997	     -1.78427187	      1.41933945	     -2.76696855	     -9.65573641	     10.44039441	      2.93453597	     -4.18445637	     -7.01048197	    -12.82344608	     -5.63516385	     11.09449651	     -1.34218121	     -1.66108689	      1.38103169	     -2.04471800
      0.21000000	     -1.51611300	     -4.58594895	      2.13411991	      0.15529203	      1.01729964	      1.33794893	     -1.76744905	      1.42873278	     -2.79288327	     -9.68598847	     10.47964468	      2.92863869	     -4.19134487	     -7.02487665	    -12.80196205	     -5.61932035	     11.09546153	     -1.30572466	     -1.69346477	      1.39457004	     -2.05275577
